<!-- <svg xmlns="http://www.w3.org/2000/svg" viewBox="0 0 618.1 383.748"> -->
<svg xmlns="http://www.w3.org/2000/svg" viewBox="0 25 618 348">
  <path style="color:#000;fill:#9be2e5;fill-opacity:1;fill-rule:nonzero;stroke:none;marker:none;visibility:visible;display:inline;overflow:visible;enable-background:accumulate" d="M0 0h617.9v333.283H0z"/>
  <path d="M102.156-75.969C37.122-76.946-19.12-13.728-12.068 50.715-6.134 110.79 54.221 159.423 114.4 151.39c50.227-5.301 95.495-46.635 100.694-97.64 7.037-53.046-27.31-108.379-78.5-124.469-11.025-3.706-22.75-5.604-34.438-5.25z" style="fill:#fffcee;fill-opacity:.11742422;stroke:none" transform="translate(436.46 45.737)"/>
  <path d="M98.156-19.563c-36.86 1.25-63.974 44.114-50.656 78.22 8.837 25.482 37.796 40.415 64.063 35.874 22.032-3.103 41.866-19.839 46.32-42.068 7.416-30.72-13.463-66.204-45.275-71.225-4.75-.803-9.63-.9-14.452-.8z" style="fill:#fff5cd;fill-opacity:.16666667;stroke:none" transform="translate(436.46 45.737)"/>
  <path d="M100.833 16.702c-14.872-.055-25.478 18.14-18.13 31.182 5.887 12.331 24.414 15.653 34.06 5.684 10.243-9.442 7.746-28.64-5.03-34.457-3.354-1.784-7.154-2.537-10.9-2.41z" style="fill:#ffe580;fill-opacity:1;stroke:none" transform="translate(436.46 45.737)"/>
  <path d="M101.02 21.193c-14.098-.357-21.895 20.233-10.995 29.194 8.193 7.988 24.79 4.972 27.86-6.737 3.601-10.73-4.918-23.665-16.865-22.457z" style="fill:#ffee81;fill-opacity:1;stroke:none" transform="translate(436.46 45.737)"/>
  <g>
    <path style="color:#000;fill:#80a4a4;fill-opacity:1;fill-rule:nonzero;stroke:none;marker:none;visibility:visible;display:inline;overflow:visible;enable-background:accumulate" d="M235.6 272.183s149.5-123.1 161.5-131.6c12-8.46 10-12.76 36 9.3 25 22.1 178 159.7 178 159.7z"/>
    <path style="color:#000;fill:#628989;fill-opacity:1;fill-rule:nonzero;stroke:none;marker:none;visibility:visible;display:inline;overflow:visible;enable-background:accumulate" d="M409.1 133.723c-4 .3-7 3.16-12 6.86-12 8.5-161.5 131.6-161.5 131.6l173.5 17.3v-155.76z"/>
    <path style="color:#000;fill:#e7e7e7;fill-opacity:1;fill-rule:nonzero;stroke:none;stroke-width:1;marker:none;visibility:visible;display:inline;overflow:visible;enable-background:accumulate" d="M409.1 133.723c-4 .3-7 3.16-12 6.86-2 1.7-11 8.4-22 17.6 0 3.4 0 6.7 1 8.3 3 4.1 17-3.8 17-3.8s2 10.6 16 10.6c11 0 12-13.6 12-13.6s19 12.3 25 5.9c1-.8 1-1.9 1-3.3-7-5.4-11-9.7-14-12.4-14-12.4-20-16.46-24-16.16z"/>
    <path style="color:#000;fill:#e7e7e7;fill-opacity:1;fill-rule:nonzero;stroke:none;stroke-width:1;marker:none;visibility:visible;display:inline;overflow:visible;enable-background:accumulate" d="M409.1 133.723c-4 .3-7 3.16-12 6.86-2 1.7-11 8.4-22 17.6 0 3.4 0 6.7 1 8.3 3 4.1 17-3.8 17-3.8s2 10.6 16 10.6h1v-39.56h-1z"/>
    <path style="color:#000;fill:#87a9a9;fill-opacity:1;fill-rule:nonzero;stroke:none;stroke-width:1;marker:none;visibility:visible;display:inline;overflow:visible;enable-background:accumulate" d="M224.2 102.953c-4.2.3-7.5 3.86-13.9 8.44-14 10.01-174.6 146.29-188.8 157.99v4.5l451.6 45.6s-187-169.4-218.9-196.59c-17.6-15.3-24.6-20.32-30-19.94z"/>
    <path style="fill:#628989;fill-opacity:1;stroke:none" d="M224.1 102.953c-4.2.3-7.4 3.86-13.8 8.44-13.4 9.61-165 133.59-190.3 154.29v8.6l204.9 20.4v-191.73h-.8z"/>
    <path style="color:#000;fill:#f2f2f2;fill-opacity:1;fill-rule:nonzero;stroke:none;marker:none;visibility:visible;display:inline;overflow:visible;enable-background:accumulate" d="M224.1 102.953c-4.2.3-7.4 3.86-13.8 8.44-3 2.13-13.3 10.33-27.4 21.72-.4 4.07-.3 8.17 1.3 10.17 3.9 5 20.9-4.7 20.9-4.7s2.1 13 19.9 13c13.5 0 14.1-16.66 14.1-16.66s24.6 15.16 31 7.26c1-1 2-2.4 1-4.1-7.1-6.61-13.2-11.97-16.9-15.19-17.6-15.3-24.7-20.32-30.1-19.94z"/>
    <path style="color:#000;fill:#e7e7e7;fill-opacity:1;fill-rule:nonzero;stroke:none;marker:none;visibility:visible;display:inline;overflow:visible;enable-background:accumulate" d="M224.1 102.953c-4.2.3-7.4 3.86-13.8 8.44-3 2.13-13.3 10.33-27.4 21.72-.4 4.07-.3 8.17 1.3 10.17 3.9 5 20.9-4.7 20.9-4.7s2.1 13 19.9 13h.1v-48.63h-1z"/>
  </g>
  <path d="M618.1 219.083c-6 1.225-12 2.8-19 4.9-33 10.499-134 59.146-202 67.895-67 8.575-189.4-50.397-248-53.896C90.41 234.482 1 260.555 1 260.555l-1 1.575v121.618h618.1V219.083z" style="color:#000;fill:#96cb78;fill-opacity:1;fill-rule:nonzero;stroke:none;marker:none;visibility:visible;display:inline;overflow:visible;enable-background:accumulate"/>
  <path style="color:#000;fill:#77b155;fill-opacity:1;fill-rule:nonzero;stroke:none;marker:none;visibility:visible;display:inline;overflow:visible;enable-background:accumulate" d="M0 281.807c6 .759 12 1.734 19 3.034 33 6.5 134 36.616 202 42.033 67 5.308 189.4-31.2 248-33.367 58.69-2.166 148.1 13.975 148.1 13.975l1 .975v75.291H0v-101.94z"/>
</svg>